HIERARCHY
ROOT Hips
{
	OFFSET 0.00000 0.00000 0.00000
	CHANNELS 6 Xposition Yposition Zposition Zrotation Yrotation Xrotation 
	JOINT LHipJoint
	{
		OFFSET 0 0 0
		CHANNELS 3 Zrotation Yrotation Xrotation
		JOINT LeftUpLeg
		{
			OFFSET 1.81638 -1.86202 0.89635
			CHANNELS 3 Zrotation Yrotation Xrotation
			JOINT LeftLeg
			{
				OFFSET 2.63464 -7.23861 0.00000
				CHANNELS 3 Zrotation Yrotation Xrotation
				JOINT LeftFoot
				{
					OFFSET 2.45871 -6.75336 0.00000
					CHANNELS 3 Zrotation Yrotation Xrotation
					JOINT LeftToeBase
					{
						OFFSET 0.34235 -0.94059 2.20020
						CHANNELS 3 Zrotation Yrotation Xrotation
						End Site
						{
							OFFSET 0.00000 -0.00000 1.18611
						}
					}
				}
			}
		}
	}
	JOINT RHipJoint
	{
		OFFSET 0 0 0
		CHANNELS 3 Zrotation Yrotation Xrotation
		JOINT RightUpLeg
		{
			OFFSET -1.84405 -1.86203 0.89635
			CHANNELS 3 Zrotation Yrotation Xrotation
			JOINT RightLeg
			{
				OFFSET -2.71067 -7.44751 0.00000
				CHANNELS 3 Zrotation Yrotation Xrotation
				JOINT RightFoot
				{
					OFFSET -2.47159 -6.79060 0.00000
					CHANNELS 3 Zrotation Yrotation Xrotation
					JOINT RightToeBase
					{
						OFFSET -0.26223 -0.72048 2.36007
						CHANNELS 3 Zrotation Yrotation Xrotation
						End Site
						{
							OFFSET -0.00000 -0.00000 1.23343
						}
					}
				}
			}
		}
	}
	JOINT LowerBack
	{
		OFFSET 0 0 0
		CHANNELS 3 Zrotation Yrotation Xrotation
		JOINT Spine
		{
			OFFSET 0.02089 1.99248 -0.22512
			CHANNELS 3 Zrotation Yrotation Xrotation
			JOINT Spine1
			{
				OFFSET 0.01476 2.01356 -0.03079
				CHANNELS 3 Zrotation Yrotation Xrotation
				JOINT Neck
				{
					OFFSET 0 0 0
					CHANNELS 3 Zrotation Yrotation Xrotation
					JOINT Neck1
					{
						OFFSET 0.04846 1.65098 0.06663
						CHANNELS 3 Zrotation Yrotation Xrotation
						JOINT Head
						{
							OFFSET -0.06061 1.60634 -0.07565
							CHANNELS 3 Zrotation Yrotation Xrotation
							End Site
							{
								OFFSET -0.02954 1.73562 -0.03642
							}
						}
					}
				}
				JOINT LeftShoulder
				{
					OFFSET 0 0 0
					CHANNELS 3 Zrotation Yrotation Xrotation
					JOINT LeftArm
					{
						OFFSET 3.45234 1.47051 -0.06993
						CHANNELS 3 Zrotation Yrotation Xrotation
						JOINT LeftForeArm
						{
							OFFSET 5.49313 -0.00000 0.00000
							CHANNELS 3 Zrotation Yrotation Xrotation
							JOINT LeftHand
							{
								OFFSET 3.29037 -0.00000 0.00000
								CHANNELS 3 Zrotation Yrotation Xrotation
								JOINT LeftFingerBase
								{
									OFFSET 0 0 0
									CHANNELS 3 Zrotation Yrotation Xrotation
									JOINT LeftHandIndex1
									{
										OFFSET 0.72966 -0.00000 0.00000
										CHANNELS 3 Zrotation Yrotation Xrotation
										End Site
										{
											OFFSET 0.58827 -0.00000 0.00000
										}
									}
								}
								JOINT LThumb
								{
									OFFSET 0 0 0
									CHANNELS 3 Zrotation Yrotation Xrotation
									End Site
									{
										OFFSET 0.59725 -0.00000 0.59725
									}
								}
							}
						}
					}
				}
				JOINT RightShoulder
				{
					OFFSET 0 0 0
					CHANNELS 3 Zrotation Yrotation Xrotation
					JOINT RightArm
					{
						OFFSET -3.41935 1.44327 0.20453
						CHANNELS 3 Zrotation Yrotation Xrotation
						JOINT RightForeArm
						{
							OFFSET -5.23684 -0.00000 0.00000
							CHANNELS 3 Zrotation Yrotation Xrotation
							JOINT RightHand
							{
								OFFSET -3.38251 -0.00000 0.00000
								CHANNELS 3 Zrotation Yrotation Xrotation
								JOINT RightFingerBase
								{
									OFFSET 0 0 0
									CHANNELS 3 Zrotation Yrotation Xrotation
									JOINT RightHandIndex1
									{
										OFFSET -0.69145 -0.00000 0.00000
										CHANNELS 3 Zrotation Yrotation Xrotation
										End Site
										{
											OFFSET -0.55747 -0.00000 0.00000
										}
									}
								}
								JOINT RThumb
								{
									OFFSET 0 0 0
									CHANNELS 3 Zrotation Yrotation Xrotation
									End Site
									{
										OFFSET -0.56598 -0.00000 0.56598
									}
								}
							}
						}
					}
				}
			}
		}
	}
}
MOTION
Frames: 6
Frame Time: .0083333
-33.496 17.7097 -1.4935 0 0 0 0 0 0 -21 0 0 0 0 0 0 0 0 0 0 0 0 0 0 21 0 0 0 0 0 0 0 0 0 0 0 0 0 0 0 0 0 0 0 0 0 0 -16 0 0 21 0 0 11 0 0 0 -8 0 0 0 0 0 0 0 0 0 0 0 0 0 0 0 0 0 0 0 0 8 0 0 0 0 0 0 0 0 0 0 0 0 0 0 0 0 0
-33.4960 17.7097 -1.4935 -53.4741 85.4053 -58.3388 0.0000 0.0000 0.0000 -12.8598 -8.1148 4.3620 1.3031 7.2318 20.4038 0.7106 10.3319 -22.8338 0.0021 -0.2981 -0.8191 0.0000 0.0000 0.0000 23.2521 5.6783 7.6389 -0.6002 -4.9593 13.7926 -0.2795 -13.5793 -22.2675 -0.0001 -0.0515 0.1416 0.6385 -1.4088 9.7971 2.7561 -1.6097 2.6426 2.6879 -0.7584 -2.6817 0.4579 2.2622 -7.9406 -2.4136 3.1022 2.7706 -0.7111 1.4815 2.2951 0.0000 -0.0000 0.0000 -86.9017 10.8332 21.4338 24.7036 -35.8995 -8.1155 -0.0000 -0.0000 2.4813 -2.2257 11.1431 -0.4304 -7.1250 0.0000 -0.0000 -25.2915 39.7480 3.5400 0.0000 -0.0000 0.0000 77.0736 -8.3884 35.3645 -23.9617 35.1237 -7.6845 0.0000 0.0000 8.2716 -3.9550 -13.7315 0.9402 7.1250 -0.0000 -0.0000 21.0415 -42.7133 1.2473
-33.4963 17.7091 -1.4922 -54.0358 85.3757 -58.8954 0.0000 0.0000 0.0000 -12.7991 -8.1408 4.3452 1.3068 7.2416 20.4331 0.7136 10.3164 -22.8468 0.0021 -0.2947 -0.8097 0.0000 0.0000 0.0000 23.3019 5.5967 7.6300 -0.5968 -4.9455 13.7532 -0.2652 -13.5897 -22.1408 -0.0001 0.0713 -0.1959 0.6676 -1.4071 9.7765 2.7854 -1.6035 2.6536 2.7005 -0.7552 -2.6591 0.4578 2.2642 -7.9148 -2.4340 3.1056 2.7487 -0.7178 1.4829 2.2836 0.0000 -0.0000 0.0000 -86.9205 10.8223 21.4229 24.7062 -35.9022 -8.1170 -0.0000 -0.0000 2.5050 -2.4509 10.3792 -0.4418 -7.1250 0.0000 -0.0000 -25.2103 39.0365 4.0081 0.0000 -0.0000 0.0000 77.0484 -8.3962 35.3693 -23.9820 35.1452 -7.6962 0.0000 0.0000 8.2500 -3.9664 -13.7654 0.9452 7.1250 -0.0000 -0.0000 21.0435 -42.7461 1.2295
-33.4949 17.7102 -1.4913 -54.1419 85.4032 -59.0106 0.0000 0.0000 0.0000 -12.8079 -8.1049 4.3571 1.3023 7.2297 20.3976 0.7131 10.2858 -22.8138 0.0022 -0.3029 -0.8321 0.0000 0.0000 0.0000 23.2989 5.6929 7.6649 -0.6000 -4.9585 13.7902 -0.2630 -13.6392 -22.1792 -0.0001 0.0597 -0.1639 0.6542 -1.4065 9.7612 2.7799 -1.6047 2.6629 2.7017 -0.7559 -2.6409 0.4781 2.2658 -7.8988 -2.4552 3.1067 2.7476 -0.7282 1.4832 2.2812 0.0000 0.0000 0.0000 -86.9248 10.8188 21.4110 24.7088 -35.9049 -8.1185 -0.0000 -0.0000 2.5052 -2.2451 11.1216 -0.4333 -7.1250 0.0000 -0.0000 -25.2997 39.7268 3.5557 0.0000 0.0000 0.0000 77.0506 -8.3929 35.3667 -23.9767 35.1396 -7.6931 0.0000 0.0000 8.2630 -3.9803 -13.7567 0.9479 7.1250 -0.0000 -0.0000 21.0285 -42.7394 1.2323
-33.4940 17.7093 -1.4899 -54.5431 85.4516 -59.4085 0.0000 0.0000 0.0000 -12.8317 -8.1456 4.3785 1.2977 7.2172 20.3606 0.7094 10.2869 -22.7814 0.0020 -0.2903 -0.7975 0.0000 0.0000 0.0000 23.2856 5.6637 7.6569 -0.6032 -4.9714 13.8271 -0.2645 -13.6640 -22.2249 -0.0000 0.0414 -0.1137 0.6305 -1.4158 9.7508 2.7765 -1.6200 2.6635 2.7130 -0.7636 -2.6332 0.4444 2.2722 -7.8704 -2.4220 3.1163 2.7254 -0.7116 1.4890 2.2673 0.0000 0.0000 0.0000 -86.9216 10.8179 21.4158 24.6990 -35.8948 -8.1128 -0.0000 -0.0000 2.4930 -2.2030 11.0790 -0.4235 -7.1250 0.0000 -0.0000 -25.2508 39.6919 3.5713 0.0000 0.0000 0.0000 77.0427 -8.4165 35.3707 -23.9984 35.1626 -7.7056 0.0000 0.0000 8.2409 -3.9516 -13.7671 0.9418 7.1250 -0.0000 -0.0000 21.0567 -42.7463 1.2303
-33.4934 17.7130 -1.4888 -54.7898 85.4622 -59.6508 0.0000 0.0000 0.0000 -12.8241 -8.1420 4.4075 1.2890 7.1941 20.2916 0.7081 10.2744 -22.7583 0.0020 -0.2908 -0.7989 0.0000 0.0000 0.0000 23.2978 5.7041 7.6028 -0.6092 -4.9957 13.8963 -0.2613 -13.7116 -22.2509 -0.0005 0.1373 -0.3772 0.6350 -1.4118 9.7655 2.7759 -1.6137 2.6567 2.7098 -0.7604 -2.6488 0.4622 2.2659 -7.8792 -2.4388 3.1075 2.7509 -0.7203 1.4840 2.2780 0.0000 0.0000 0.0000 -86.9153 10.8287 21.4248 24.7070 -35.9030 -8.1175 -0.0000 -0.0000 2.5094 -2.2660 10.9054 -0.4289 -7.1250 0.0000 -0.0000 -25.2415 39.5291 3.6801 0.0000 0.0000 0.0000 77.0910 -8.3381 35.2600 -23.8826 35.0398 -7.6390 0.0000 0.0000 8.3468 -3.9639 -13.7196 0.9415 7.1250 -0.0000 -0.0000 21.0297 -42.7031 1.2522
